<svg id="svg" version="1.1" xmlns="http://www.w3.org/2000/svg" xmlns:xlink="http://www.w3.org/1999/xlink" width="50" height="50" viewBox="0, 0, 400,400"><g id="svgg"><path id="path0" d="M27.998 28.000 C 27.658 57.207,28.114 371.825,28.495 372.068 C 29.429 372.663,371.084 372.276,371.680 371.680 C 372.276 371.084,372.663 29.429,372.068 28.495 C 371.748 27.992,28.004 27.498,27.998 28.000 M343.200 143.000 L 343.200 232.400 342.233 232.400 C 341.701 232.400,340.981 232.509,340.633 232.643 C 340.130 232.836,340.000 232.598,340.000 231.492 C 340.000 229.789,339.199 229.051,337.604 229.285 C 336.470 229.451,336.400 229.384,336.400 228.121 C 336.400 226.453,335.307 225.938,332.169 226.126 L 330.000 226.257 330.000 224.528 L 330.000 222.800 328.400 222.800 L 326.800 222.800 326.800 221.200 L 326.800 219.600 325.200 219.600 L 323.600 219.600 323.600 218.000 C 323.600 216.410,323.590 216.400,322.058 216.400 L 320.516 216.400 320.281 213.599 C 319.998 210.225,319.879 210.000,318.376 210.000 C 317.312 210.000,317.200 209.874,317.200 208.680 C 317.200 207.073,316.593 206.400,315.144 206.400 C 314.167 206.400,314.035 206.238,313.924 204.900 C 313.800 203.402,313.798 203.400,312.100 203.507 L 310.400 203.615 310.400 200.207 L 310.400 196.800 308.817 196.800 L 307.234 196.800 307.117 193.700 L 307.000 190.600 305.500 190.476 L 304.000 190.352 304.000 187.656 C 304.000 184.673,303.617 184.000,301.920 184.000 C 300.824 184.000,300.800 183.951,300.795 181.700 C 300.786 178.303,300.538 177.715,298.987 177.424 C 297.783 177.198,297.634 177.021,297.523 175.686 C 297.407 174.287,297.313 174.193,295.916 174.077 L 294.433 173.954 294.316 170.877 L 294.200 167.800 292.700 167.676 L 291.200 167.552 291.200 165.626 C 291.200 161.973,290.877 161.200,289.350 161.200 C 288.089 161.200,288.000 161.113,288.000 159.880 C 288.000 158.215,287.389 157.600,285.738 157.600 L 284.435 157.600 284.318 154.700 L 284.200 151.800 282.720 151.434 C 281.393 151.106,281.228 150.921,281.120 149.634 C 281.008 148.291,280.905 148.192,279.500 148.076 C 278.042 147.955,278.000 147.908,278.000 146.376 C 278.000 144.804,277.996 144.800,276.400 144.800 L 274.800 144.800 274.800 142.626 C 274.800 139.501,274.292 138.400,272.850 138.400 C 271.827 138.400,271.635 138.211,271.326 136.900 C 271.016 135.585,270.801 135.375,269.586 135.200 C 268.358 135.023,268.177 134.841,268.000 133.600 C 267.823 132.363,267.649 132.185,266.500 132.075 C 265.413 131.970,265.200 131.785,265.200 130.948 C 265.200 129.212,264.503 128.400,263.011 128.400 C 261.769 128.400,261.640 128.287,261.525 127.100 C 261.416 125.967,261.207 125.752,259.900 125.429 C 258.614 125.112,258.400 124.900,258.400 123.944 C 258.400 122.472,257.436 122.000,254.426 122.000 L 252.000 122.000 252.000 120.400 L 252.000 118.800 250.400 118.800 L 248.800 118.800 248.800 117.200 C 248.800 115.609,248.791 115.600,247.251 115.600 C 245.753 115.600,245.694 115.547,245.446 114.000 L 245.191 112.400 242.195 112.400 L 239.200 112.400 239.200 111.014 C 239.200 109.496,238.399 108.800,236.652 108.800 C 235.815 108.800,235.630 108.587,235.525 107.500 C 235.415 106.351,235.237 106.177,234.000 106.000 L 232.600 105.800 232.400 101.000 L 232.200 96.200 224.369 96.092 L 216.537 95.984 216.169 94.492 L 215.800 93.000 209.524 92.890 L 203.247 92.780 203.124 91.290 C 203.008 89.896,202.907 89.792,201.566 89.680 C 200.279 89.572,200.094 89.407,199.766 88.080 L 199.400 86.600 196.500 86.262 C 193.905 85.960,193.599 85.834,193.594 85.062 C 193.581 83.314,193.009 83.000,189.833 83.000 L 186.836 83.000 186.718 81.400 L 186.600 79.800 184.200 79.765 C 180.240 79.708,180.400 79.784,180.400 77.965 L 180.400 76.330 178.813 76.598 L 177.225 76.866 177.113 71.933 L 177.000 67.000 173.923 66.884 L 170.846 66.767 170.723 65.284 C 170.607 63.884,170.515 63.793,169.100 63.676 C 167.679 63.558,167.600 63.479,167.600 62.166 C 167.600 60.619,166.640 59.995,164.274 60.005 C 161.851 60.016,161.309 60.356,161.041 62.035 L 160.791 63.600 157.983 63.600 C 156.085 63.600,155.125 63.762,155.021 64.100 C 154.936 64.375,154.761 65.084,154.632 65.676 C 154.435 66.579,154.156 66.772,152.898 66.876 C 151.482 66.993,151.393 67.082,151.276 68.500 C 151.155 69.958,151.108 70.000,149.576 70.000 C 148.004 70.000,148.000 70.004,148.000 71.600 L 148.000 73.200 145.574 73.200 C 142.533 73.200,141.600 73.667,141.600 75.190 C 141.600 76.244,141.461 76.363,140.100 76.476 C 138.659 76.595,138.595 76.663,138.481 78.209 C 138.363 79.815,138.361 79.817,136.833 79.672 C 135.353 79.531,134.160 81.446,134.943 82.707 C 135.043 82.868,134.377 83.000,133.463 83.000 L 131.800 83.000 131.800 84.600 L 131.800 86.200 128.812 86.318 C 125.630 86.445,125.216 86.695,125.206 88.500 C 125.200 89.516,125.077 89.600,123.600 89.600 L 122.000 89.600 122.000 91.200 L 122.000 92.800 120.400 92.800 L 118.800 92.800 118.800 94.400 L 118.800 96.000 116.374 96.000 C 113.333 96.000,112.400 96.467,112.400 97.990 C 112.400 99.044,112.261 99.163,110.900 99.276 C 109.490 99.393,109.379 99.501,109.047 101.082 C 108.706 102.705,108.644 102.761,107.247 102.682 C 105.816 102.601,105.800 102.617,105.774 104.200 L 105.748 105.799 103.014 105.837 C 100.145 105.877,99.200 106.430,99.200 108.072 C 99.200 108.601,98.778 108.858,97.600 109.046 C 96.053 109.294,96.000 109.353,96.000 110.851 C 96.000 112.391,95.991 112.400,94.400 112.400 L 92.800 112.400 92.800 114.000 L 92.800 115.600 90.080 115.600 C 87.072 115.600,86.400 115.980,86.400 117.680 C 86.400 118.719,86.285 118.800,84.805 118.800 C 83.256 118.800,83.202 118.847,82.957 120.379 C 82.722 121.850,82.606 121.966,81.252 122.079 L 79.800 122.200 79.800 127.036 C 79.800 131.429,79.736 131.856,79.106 131.692 C 78.725 131.592,77.969 131.621,77.427 131.757 L 76.441 132.005 76.566 143.702 C 76.716 157.774,76.757 157.436,74.856 157.886 L 73.400 158.230 73.295 172.515 L 73.190 186.800 77.995 186.800 L 82.800 186.800 82.800 188.120 C 82.800 188.846,83.016 189.656,83.280 189.920 C 83.653 190.293,83.029 190.400,80.470 190.400 C 76.383 190.400,76.441 190.291,76.487 197.755 L 76.520 203.200 79.660 203.200 L 82.800 203.200 82.800 205.000 C 82.800 206.725,82.751 206.800,81.624 206.800 C 80.118 206.800,79.913 207.173,79.785 210.150 C 79.728 211.498,79.662 212.735,79.640 212.900 C 79.618 213.065,78.860 213.200,77.957 213.200 C 76.418 213.200,76.329 213.262,76.556 214.168 C 76.964 215.793,76.475 216.400,74.757 216.400 C 73.207 216.400,73.200 216.407,73.200 218.000 L 73.200 219.600 70.774 219.600 C 67.733 219.600,66.800 220.067,66.800 221.590 C 66.800 222.644,66.661 222.763,65.300 222.876 C 63.877 222.994,63.790 223.082,63.600 224.600 C 63.404 226.171,63.373 226.198,61.907 226.084 C 60.452 225.970,60.408 226.007,60.162 227.549 C 59.872 229.360,59.368 229.611,56.634 229.303 C 55.475 229.172,54.586 229.280,54.203 229.597 C 53.666 230.043,53.600 220.457,53.600 141.849 L 53.600 53.600 198.400 53.600 L 343.200 53.600 343.200 143.000 M213.276 107.100 L 213.400 108.600 218.100 108.713 L 222.800 108.825 222.768 114.313 C 222.751 117.331,222.646 119.575,222.535 119.300 C 222.390 118.939,221.006 118.800,217.567 118.800 L 212.800 118.800 212.800 117.680 C 212.800 115.606,212.760 115.600,199.520 115.600 L 187.200 115.600 187.200 117.188 L 187.200 118.775 182.300 118.888 L 177.400 119.000 177.277 120.484 L 177.154 121.967 174.077 122.084 L 171.000 122.200 170.800 123.800 C 170.603 125.373,170.575 125.398,169.100 125.283 L 167.600 125.165 167.600 126.783 C 167.600 127.786,167.410 128.417,167.100 128.444 C 166.825 128.468,165.603 128.524,164.384 128.569 C 161.652 128.668,161.200 128.931,161.200 130.424 C 161.200 131.401,161.036 131.600,160.233 131.600 C 158.604 131.600,158.032 132.021,157.772 133.410 C 157.550 134.593,157.341 134.773,155.923 135.013 C 154.343 135.280,154.326 135.302,154.473 136.842 L 154.621 138.400 152.859 138.400 L 151.098 138.400 151.354 140.000 L 151.609 141.600 149.805 141.600 L 148.000 141.600 148.000 143.200 L 148.000 144.800 146.400 144.800 C 144.804 144.800,144.800 144.804,144.800 146.376 C 144.800 147.908,144.758 147.955,143.300 148.076 C 141.895 148.192,141.792 148.291,141.680 149.634 C 141.572 150.921,141.407 151.106,140.080 151.434 L 138.600 151.800 138.482 154.700 L 138.365 157.600 137.006 157.600 C 135.517 157.600,135.197 157.917,134.821 159.765 C 134.610 160.802,134.348 161.032,133.185 161.200 C 131.916 161.383,131.790 161.525,131.676 162.900 C 131.564 164.257,131.442 164.400,130.399 164.400 C 128.876 164.400,128.623 164.909,128.611 168.000 L 128.600 170.600 127.000 170.800 C 125.453 170.993,125.401 171.048,125.442 172.458 C 125.482 173.844,125.409 173.928,123.986 174.156 C 122.224 174.438,122.000 174.875,122.000 178.033 C 122.000 180.270,121.947 180.400,121.033 180.400 C 118.965 180.400,118.800 180.669,118.800 184.043 L 118.800 187.200 117.200 187.200 L 115.600 187.200 115.600 190.400 L 115.600 193.600 114.000 193.600 L 112.400 193.600 112.400 196.757 C 112.400 200.173,112.096 200.640,110.186 200.161 C 109.160 199.903,108.502 201.216,108.897 202.729 C 109.053 203.325,108.883 203.415,107.877 203.267 C 107.056 203.147,106.514 203.304,106.182 203.757 C 105.754 204.342,105.666 204.349,105.460 203.812 C 105.311 203.423,104.711 203.200,103.813 203.200 L 102.400 203.200 102.400 200.000 L 102.400 196.800 101.300 196.746 C 100.377 196.700,100.343 196.663,101.087 196.519 C 102.030 196.337,102.303 195.460,102.499 192.000 C 102.588 190.417,102.721 190.183,103.600 190.062 C 105.303 189.826,105.600 189.279,105.600 186.375 L 105.600 183.648 107.100 183.524 L 108.600 183.400 108.716 180.323 L 108.833 177.246 110.316 177.123 L 111.800 177.000 111.916 173.922 L 112.033 170.844 113.716 170.722 C 115.389 170.601,115.401 170.589,115.523 168.900 C 115.637 167.321,115.728 167.200,116.799 167.200 C 118.266 167.200,118.332 167.075,118.650 163.650 L 118.915 160.800 120.457 160.800 C 121.990 160.800,122.000 160.790,122.000 159.200 C 122.000 157.648,122.040 157.600,123.357 157.600 C 125.001 157.600,125.200 157.187,125.200 153.767 L 125.200 151.200 126.800 151.200 L 128.400 151.200 128.400 149.600 L 128.400 148.000 130.000 148.000 C 131.596 148.000,131.600 147.996,131.600 146.424 C 131.600 144.892,131.642 144.845,133.100 144.724 C 134.519 144.607,134.607 144.519,134.724 143.100 C 134.836 141.744,134.959 141.600,135.996 141.600 C 137.398 141.600,138.400 140.672,138.400 139.371 C 138.400 138.610,138.610 138.400,139.371 138.400 C 140.679 138.400,141.600 137.396,141.600 135.971 C 141.600 134.906,141.723 134.800,142.957 134.800 C 144.386 134.800,144.800 134.303,144.800 132.591 C 144.800 131.790,145.026 131.630,146.300 131.524 C 147.719 131.407,147.807 131.319,147.924 129.900 C 148.045 128.442,148.092 128.400,149.624 128.400 C 151.196 128.400,151.200 128.396,151.200 126.800 L 151.200 125.200 152.800 125.200 L 154.400 125.200 154.400 123.600 L 154.400 122.000 156.967 122.000 C 160.376 122.000,160.800 121.799,160.800 120.180 C 160.800 118.897,160.864 118.841,162.500 118.723 C 164.150 118.604,164.204 118.556,164.324 117.100 L 164.448 115.600 167.144 115.600 C 170.202 115.600,170.800 115.227,170.800 113.320 L 170.800 112.000 174.000 112.000 L 177.200 112.000 177.200 110.400 L 177.200 108.800 181.520 108.800 C 186.218 108.800,186.800 108.571,186.800 106.720 L 186.800 105.600 199.976 105.600 L 213.152 105.600 213.276 107.100 M235.800 140.000 C 236.062 141.548,236.121 141.600,237.635 141.600 C 239.194 141.600,239.200 141.606,239.200 143.200 L 239.200 144.800 240.800 144.800 L 242.400 144.800 242.400 146.400 L 242.400 148.000 244.000 148.000 L 245.600 148.000 245.600 149.600 L 245.600 151.200 247.200 151.200 L 248.800 151.200 248.800 152.800 L 248.800 154.400 250.400 154.400 C 251.645 154.400,252.007 154.555,252.032 155.100 C 252.289 160.701,252.324 160.800,254.024 160.800 C 255.058 160.800,255.200 160.942,255.200 161.971 C 255.200 163.396,256.121 164.400,257.429 164.400 C 258.226 164.400,258.400 164.601,258.400 165.520 C 258.400 166.928,259.057 167.600,260.433 167.600 C 261.687 167.600,261.986 168.339,261.995 171.457 C 262.000 173.640,262.317 174.000,264.233 174.000 C 265.095 174.000,265.200 174.174,265.200 175.600 C 265.200 177.197,265.203 177.200,266.783 177.200 L 268.366 177.200 268.483 180.300 L 268.600 183.400 270.100 183.524 L 271.600 183.648 271.600 186.050 C 271.600 189.068,272.070 190.000,273.591 190.000 C 274.673 190.000,274.763 190.118,274.877 191.700 C 274.996 193.350,275.044 193.404,276.500 193.524 C 278.150 193.661,278.133 193.619,278.178 197.800 L 278.200 199.800 279.800 200.000 L 281.400 200.200 281.400 203.200 L 281.400 206.200 282.900 206.324 L 284.400 206.448 284.440 208.724 C 284.504 212.361,284.793 212.980,286.499 213.123 L 287.966 213.246 288.083 216.123 L 288.200 219.000 289.600 219.200 C 290.890 219.384,291.016 219.526,291.200 221.000 C 291.390 222.518,291.477 222.606,292.900 222.724 C 294.358 222.845,294.400 222.892,294.400 224.424 C 294.400 225.996,294.404 226.000,296.000 226.000 L 297.600 226.000 297.600 227.600 L 297.600 229.200 299.200 229.200 C 300.868 229.200,301.024 229.415,300.851 231.476 C 300.787 232.237,301.004 232.369,302.489 232.476 L 304.200 232.600 304.083 234.100 L 303.965 235.600 305.717 235.600 L 307.469 235.600 307.435 237.300 C 307.400 238.976,307.421 239.002,308.865 239.122 C 310.191 239.233,310.364 239.385,310.678 240.722 C 310.994 242.064,311.162 242.211,312.513 242.324 C 313.907 242.441,314.000 242.532,314.000 243.781 C 314.000 245.399,314.424 245.600,317.833 245.600 L 320.400 245.600 320.400 247.200 C 320.400 248.792,320.407 248.800,321.955 248.800 C 323.407 248.800,323.528 248.891,323.765 250.156 C 324.078 251.824,324.588 251.987,329.500 251.995 C 333.145 252.000,333.200 252.014,333.200 252.967 C 333.200 255.147,333.325 255.200,338.443 255.200 L 343.200 255.200 343.200 299.200 L 343.200 343.200 282.900 343.147 C 249.735 343.118,223.230 342.983,224.000 342.847 C 225.141 342.646,225.470 342.363,225.777 341.320 C 226.099 340.227,226.364 340.022,227.577 339.920 C 228.943 339.805,229.005 339.732,229.123 338.100 C 229.245 336.408,229.254 336.400,230.823 336.400 C 232.396 336.400,232.400 336.396,232.400 334.800 L 232.400 333.200 242.200 333.200 L 252.000 333.200 252.000 331.600 L 252.000 330.000 258.186 330.000 C 264.875 330.000,265.200 329.890,265.200 327.626 C 265.200 326.928,265.450 326.800,266.810 326.800 L 268.420 326.800 268.310 320.500 L 268.200 314.200 265.000 313.990 C 262.815 313.846,262.244 313.720,263.200 313.590 C 264.447 313.421,264.622 313.247,264.800 312.000 L 265.000 310.600 267.919 310.482 C 269.758 310.408,270.893 310.186,270.986 309.882 C 271.067 309.617,271.241 308.908,271.373 308.306 L 271.612 307.212 282.906 307.106 L 294.200 307.000 294.317 303.913 L 294.433 300.825 299.117 300.713 L 303.800 300.600 303.924 299.100 L 304.048 297.600 306.124 297.560 C 309.465 297.496,310.171 297.170,310.400 295.583 C 310.577 294.358,310.760 294.177,312.000 294.000 L 313.400 293.800 313.768 290.900 L 314.136 288.000 316.168 287.995 C 319.439 287.986,319.971 287.719,320.254 285.953 L 320.502 284.400 323.237 284.400 C 326.840 284.400,326.800 284.499,326.800 275.619 L 326.800 268.386 317.300 268.493 L 307.800 268.600 307.429 270.100 C 306.955 272.022,304.000 272.477,304.000 270.629 C 304.000 268.765,303.115 268.400,298.596 268.400 L 294.448 268.400 294.324 266.900 C 294.207 265.481,294.119 265.393,292.700 265.276 C 291.371 265.166,291.199 265.029,291.194 264.076 C 291.185 262.525,290.772 262.082,289.197 261.933 C 287.939 261.813,287.780 261.661,287.600 260.400 C 287.347 258.626,285.875 258.318,279.300 258.661 L 274.800 258.896 274.800 257.256 C 274.800 255.291,274.045 254.952,270.617 255.381 L 268.449 255.652 268.324 253.926 C 268.203 252.244,268.164 252.200,266.800 252.200 L 265.401 252.200 265.065 249.400 C 264.676 246.164,264.333 245.600,262.753 245.600 L 261.604 245.600 261.502 211.500 L 261.400 177.400 259.900 177.276 L 258.400 177.152 258.400 172.376 L 258.400 167.600 253.613 167.600 L 248.825 167.600 248.713 162.900 L 248.600 158.200 247.100 157.829 C 245.828 157.515,245.600 157.294,245.600 156.378 C 245.600 154.740,244.760 154.303,241.912 154.461 L 239.400 154.600 239.132 150.280 C 238.842 145.585,238.501 144.800,236.751 144.800 C 235.675 144.800,235.600 144.696,235.600 143.200 L 235.600 141.600 234.000 141.600 L 232.400 141.600 232.400 140.000 C 232.400 138.406,232.406 138.400,233.965 138.400 C 235.479 138.400,235.538 138.452,235.800 140.000 M158.560 212.894 C 158.802 213.056,159.495 213.191,160.100 213.194 C 161.086 213.199,161.200 213.343,161.200 214.575 C 161.200 216.595,167.174 217.284,167.213 215.268 C 167.224 214.659,167.273 214.662,167.757 215.300 C 168.064 215.705,168.817 216.000,169.544 216.000 L 170.800 216.000 170.800 218.920 C 170.800 222.132,171.155 222.800,172.863 222.800 C 173.962 222.800,173.967 222.811,174.083 225.900 L 174.200 229.000 177.300 229.117 C 180.264 229.229,180.400 229.275,180.400 230.184 C 180.400 232.213,180.691 232.400,183.843 232.400 L 186.800 232.400 186.881 230.700 C 186.926 229.765,187.061 231.250,187.181 234.000 L 187.400 239.000 188.900 239.124 L 190.400 239.248 190.400 247.224 L 190.400 255.200 192.000 255.200 L 193.600 255.200 193.600 256.800 L 193.600 258.400 196.923 258.400 L 200.247 258.400 200.165 260.000 L 200.083 261.600 201.602 261.600 C 203.026 261.600,203.142 261.693,203.474 263.095 C 203.932 265.030,204.566 265.147,214.817 265.177 L 222.635 265.200 223.017 266.500 C 223.389 267.762,223.487 267.812,226.397 268.205 C 229.283 268.596,229.402 268.655,229.598 269.788 C 229.854 271.267,230.653 271.508,235.475 271.560 L 239.149 271.600 239.275 272.900 C 239.384 274.033,239.593 274.248,240.900 274.571 C 242.307 274.918,242.400 275.036,242.400 276.471 C 242.400 277.988,242.412 278.000,244.000 278.000 L 245.600 278.000 245.600 280.426 C 245.600 283.482,246.065 284.400,247.614 284.400 C 248.753 284.400,248.800 284.471,248.800 286.200 L 248.800 288.000 247.200 288.000 C 245.774 288.000,245.600 287.895,245.600 287.033 C 245.600 285.499,245.181 284.800,244.257 284.794 C 242.837 284.784,242.551 284.322,242.167 281.422 C 241.812 278.733,241.758 278.634,240.500 278.311 C 239.568 278.072,239.200 277.746,239.200 277.162 C 239.200 273.908,229.958 273.530,229.528 276.766 C 229.436 277.463,229.011 277.863,228.005 278.200 C 226.319 278.766,225.668 280.429,226.235 282.724 L 226.600 284.200 229.700 284.317 L 232.800 284.434 232.800 286.217 C 232.800 287.982,232.786 288.000,231.424 288.000 C 229.675 288.000,229.480 288.351,229.436 291.566 L 229.400 294.200 227.800 294.400 L 226.200 294.600 226.200 304.300 L 226.200 314.000 224.500 314.000 L 222.800 314.000 222.800 315.600 L 222.800 317.200 219.600 317.200 L 216.400 317.200 216.400 323.824 L 216.400 330.448 212.038 330.215 C 206.220 329.904,206.400 329.701,206.400 336.600 C 206.400 340.924,206.520 342.063,207.029 342.571 C 207.600 343.143,200.655 343.200,130.629 343.200 L 53.600 343.200 53.600 299.217 L 53.600 255.234 56.700 255.117 L 59.800 255.000 59.924 253.500 L 60.048 252.000 64.610 252.000 C 69.512 252.000,70.000 251.785,70.000 249.626 C 70.000 248.872,70.238 248.800,72.720 248.800 C 75.704 248.800,76.400 248.418,76.400 246.778 C 76.400 245.750,76.491 245.708,79.265 245.476 C 82.221 245.228,82.783 244.886,82.794 243.324 C 82.799 242.602,83.063 242.426,84.300 242.324 C 85.714 242.207,85.807 242.115,85.923 240.722 C 86.041 239.295,86.104 239.240,87.723 239.122 C 89.385 239.001,89.401 238.985,89.522 237.317 L 89.644 235.634 92.508 235.517 L 95.373 235.400 95.726 233.900 C 95.974 232.846,96.296 232.400,96.807 232.400 C 98.194 232.400,98.779 231.916,99.034 230.561 C 99.237 229.478,99.478 229.200,100.216 229.200 C 101.418 229.200,102.400 228.198,102.400 226.971 C 102.400 226.210,102.610 226.000,103.371 226.000 C 105.027 226.000,105.600 225.016,105.600 222.171 L 105.600 219.600 112.200 219.600 L 118.800 219.600 118.800 221.206 L 118.800 222.812 130.100 222.706 L 141.400 222.600 141.523 221.116 L 141.646 219.633 144.723 219.516 L 147.800 219.400 147.923 217.916 L 148.046 216.433 151.123 216.316 L 154.200 216.200 154.324 214.700 C 154.431 213.410,154.585 213.200,155.424 213.200 C 155.961 213.200,156.715 212.878,157.100 212.483 C 157.500 212.073,157.868 211.945,157.960 212.183 C 158.048 212.413,158.318 212.732,158.560 212.894 " stroke="none" fill="#245c74" fill-rule="evenodd"></path><path id="path1" d="M115.500 27.900 C 161.755 27.956,237.445 27.956,283.700 27.900 C 329.955 27.844,292.110 27.798,199.600 27.798 C 107.090 27.798,69.245 27.844,115.500 27.900 M27.798 199.600 C 27.798 292.110,27.844 329.955,27.900 283.700 C 27.956 237.445,27.956 161.755,27.900 115.500 C 27.844 69.245,27.798 107.090,27.798 199.600 M76.524 140.600 C 76.526 141.920,76.601 142.412,76.690 141.693 C 76.779 140.974,76.777 139.894,76.686 139.293 C 76.595 138.692,76.522 139.280,76.524 140.600 M76.524 153.800 C 76.526 155.120,76.601 155.612,76.690 154.893 C 76.779 154.174,76.777 153.094,76.686 152.493 C 76.595 151.892,76.522 152.480,76.524 153.800 M281.293 201.600 C 281.293 202.370,281.375 202.685,281.476 202.300 C 281.576 201.915,281.576 201.285,281.476 200.900 C 281.375 200.515,281.293 200.830,281.293 201.600 M275.900 258.689 C 276.615 258.778,277.785 258.778,278.500 258.689 C 279.215 258.601,278.630 258.528,277.200 258.528 C 275.770 258.528,275.185 258.601,275.900 258.689 M232.514 286.200 C 232.517 287.300,232.595 287.703,232.687 287.095 C 232.779 286.486,232.777 285.586,232.682 285.095 C 232.587 284.603,232.511 285.100,232.514 286.200 M214.305 330.283 C 214.802 330.379,215.522 330.375,215.905 330.275 C 216.287 330.175,215.880 330.096,215.000 330.101 C 214.120 330.105,213.807 330.187,214.305 330.283 " stroke="none" fill="#285c74" fill-rule="evenodd"></path><path id="path2" d="M115.500 27.900 C 161.755 27.956,237.445 27.956,283.700 27.900 C 329.955 27.844,292.110 27.798,199.600 27.798 C 107.090 27.798,69.245 27.844,115.500 27.900 M27.798 199.600 C 27.798 292.110,27.844 329.955,27.900 283.700 C 27.956 237.445,27.956 161.755,27.900 115.500 C 27.844 69.245,27.798 107.090,27.798 199.600 M76.524 140.600 C 76.526 141.920,76.601 142.412,76.690 141.693 C 76.779 140.974,76.777 139.894,76.686 139.293 C 76.595 138.692,76.522 139.280,76.524 140.600 M76.524 153.800 C 76.526 155.120,76.601 155.612,76.690 154.893 C 76.779 154.174,76.777 153.094,76.686 152.493 C 76.595 151.892,76.522 152.480,76.524 153.800 M281.293 201.600 C 281.293 202.370,281.375 202.685,281.476 202.300 C 281.576 201.915,281.576 201.285,281.476 200.900 C 281.375 200.515,281.293 200.830,281.293 201.600 M275.900 258.689 C 276.615 258.778,277.785 258.778,278.500 258.689 C 279.215 258.601,278.630 258.528,277.200 258.528 C 275.770 258.528,275.185 258.601,275.900 258.689 M232.514 286.200 C 232.517 287.300,232.595 287.703,232.687 287.095 C 232.779 286.486,232.777 285.586,232.682 285.095 C 232.587 284.603,232.511 285.100,232.514 286.200 M214.305 330.283 C 214.802 330.379,215.522 330.375,215.905 330.275 C 216.287 330.175,215.880 330.096,215.000 330.101 C 214.120 330.105,213.807 330.187,214.305 330.283 " stroke="none" fill="#285c74" fill-rule="evenodd"></path><path id="path3" d="M115.500 27.900 C 161.755 27.956,237.445 27.956,283.700 27.900 C 329.955 27.844,292.110 27.798,199.600 27.798 C 107.090 27.798,69.245 27.844,115.500 27.900 M27.798 199.600 C 27.798 292.110,27.844 329.955,27.900 283.700 C 27.956 237.445,27.956 161.755,27.900 115.500 C 27.844 69.245,27.798 107.090,27.798 199.600 M76.524 140.600 C 76.526 141.920,76.601 142.412,76.690 141.693 C 76.779 140.974,76.777 139.894,76.686 139.293 C 76.595 138.692,76.522 139.280,76.524 140.600 M76.524 153.800 C 76.526 155.120,76.601 155.612,76.690 154.893 C 76.779 154.174,76.777 153.094,76.686 152.493 C 76.595 151.892,76.522 152.480,76.524 153.800 M281.293 201.600 C 281.293 202.370,281.375 202.685,281.476 202.300 C 281.576 201.915,281.576 201.285,281.476 200.900 C 281.375 200.515,281.293 200.830,281.293 201.600 M275.900 258.689 C 276.615 258.778,277.785 258.778,278.500 258.689 C 279.215 258.601,278.630 258.528,277.200 258.528 C 275.770 258.528,275.185 258.601,275.900 258.689 M232.514 286.200 C 232.517 287.300,232.595 287.703,232.687 287.095 C 232.779 286.486,232.777 285.586,232.682 285.095 C 232.587 284.603,232.511 285.100,232.514 286.200 M214.305 330.283 C 214.802 330.379,215.522 330.375,215.905 330.275 C 216.287 330.175,215.880 330.096,215.000 330.101 C 214.120 330.105,213.807 330.187,214.305 330.283 " stroke="none" fill="#285c74" fill-rule="evenodd"></path><path id="path4" d="M115.500 27.900 C 161.755 27.956,237.445 27.956,283.700 27.900 C 329.955 27.844,292.110 27.798,199.600 27.798 C 107.090 27.798,69.245 27.844,115.500 27.900 M27.798 199.600 C 27.798 292.110,27.844 329.955,27.900 283.700 C 27.956 237.445,27.956 161.755,27.900 115.500 C 27.844 69.245,27.798 107.090,27.798 199.600 M76.524 140.600 C 76.526 141.920,76.601 142.412,76.690 141.693 C 76.779 140.974,76.777 139.894,76.686 139.293 C 76.595 138.692,76.522 139.280,76.524 140.600 M76.524 153.800 C 76.526 155.120,76.601 155.612,76.690 154.893 C 76.779 154.174,76.777 153.094,76.686 152.493 C 76.595 151.892,76.522 152.480,76.524 153.800 M281.293 201.600 C 281.293 202.370,281.375 202.685,281.476 202.300 C 281.576 201.915,281.576 201.285,281.476 200.900 C 281.375 200.515,281.293 200.830,281.293 201.600 M275.900 258.689 C 276.615 258.778,277.785 258.778,278.500 258.689 C 279.215 258.601,278.630 258.528,277.200 258.528 C 275.770 258.528,275.185 258.601,275.900 258.689 M232.514 286.200 C 232.517 287.300,232.595 287.703,232.687 287.095 C 232.779 286.486,232.777 285.586,232.682 285.095 C 232.587 284.603,232.511 285.100,232.514 286.200 M214.305 330.283 C 214.802 330.379,215.522 330.375,215.905 330.275 C 216.287 330.175,215.880 330.096,215.000 330.101 C 214.120 330.105,213.807 330.187,214.305 330.283 " stroke="none" fill="#285c74" fill-rule="evenodd"></path></g></svg>
